<?xml version="1.0" encoding="UTF-8"?>
<svg width="22px" height="22px" viewBox="0 0 22 22" version="1.1" xmlns="http://www.w3.org/2000/svg" xmlns:xlink="http://www.w3.org/1999/xlink">
    <title>favicon.svg</title>
    <g id="Page-1" stroke="none" stroke-width="1" fill="none" fill-rule="evenodd">
        <g id="favicon.svg" transform="translate(1, 1)">
            <rect id="border" stroke="#67AAE0" stroke-width="2" x="0" y="0" width="20" height="20" rx="3"></rect>
            <g id="onion" transform="translate(3, 2)" fill="#EA9999" fill-rule="nonzero">
                <path d="M11.9230978,4.04384524 C11.7598508,3.90097019 11.5286707,3.71722012 11.255017,3.50406379 C10.845558,3.18500117 10.3450843,2.80393853 9.88095554,2.4382509 C9.41792442,2.07396951 8.98773173,1.72068813 8.74063544,1.48087555 C8.38261414,1.13425042 8.0482231,0.797969044 7.78880859,0.5436877 C7.65870495,0.416437653 7.54820681,0.310343864 7.45621649,0.228093834 C7.40950481,0.186781319 7.36870831,0.151843806 7.32208809,0.117375043 C7.29800047,0.0999062868 7.27333353,0.0824687804 7.2349153,0.0615625227 C7.21527932,0.0510000188 7.19210642,0.0395312646 7.15780443,0.0273437601 C7.1229841,0.0158437558 7.07737008,0.000906250334 6.99992381,0 C6.92427648,0.000687500253 6.87777823,0.0153750057 6.84268348,0.02712501 C6.77633581,0.0512187689 6.74633301,0.0721250266 6.71785473,0.0900312832 C6.66778907,0.123562545 6.63415788,0.152281306 6.59570916,0.185593818 C6.53039817,0.243031339 6.45868414,0.312156365 6.37404208,0.395531396 C6.12237219,0.644281487 5.76096643,1.01984413 5.35385517,1.41378177 L5.35385517,1.41353177 C5.18588214,1.57615683 4.93195594,1.79321941 4.64150194,2.02843825 C4.20502818,2.38240713 3.68430873,2.78137602 3.21453917,3.14225116 C2.97954767,3.32300122 2.75724029,3.49415754 2.5630148,3.64690759 C2.36860637,3.79990765 2.20352995,3.93287645 2.07690225,4.04384524 C0.806265079,5.15353315 -0.000548208646,6.71572122 3.11426504e-07,8.44878436 C-0.000578699304,10.18166 0.806265079,11.7440668 2.07702421,12.8537547 L2.07690225,12.8535047 C2.89649112,13.5704112 3.91164707,14.1049114 5.04144789,14.3955053 L4.5038976,14.9274742 C4.36717749,15.0627555 4.36336616,15.2862556 4.49536022,15.4263807 C4.62747624,15.5665057 4.84533198,15.5703807 4.98214357,15.4350994 L5.86606773,14.5603804 C5.95415523,14.5730054 6.04288305,14.5838179 6.13209871,14.5934741 L5.8909481,15.5595995 C5.84380955,15.748412 5.95494799,15.9406621 6.13917254,15.9889121 C6.32327513,16.0371622 6.51085366,15.9234746 6.55793123,15.7346308 L6.83146292,14.6389741 C6.88759622,14.6401304 6.94342462,14.6426616 6.99989331,14.6426616 C7.05636201,14.6426616 7.11215992,14.6401304 7.16829322,14.6389741 L7.4418249,15.7346308 C7.48890248,15.9234746 7.676481,16.0371622 7.86058359,15.9889121 C8.04480815,15.9406621 8.15597708,15.748412 8.10880804,15.5595995 L7.86765743,14.5934741 C7.95687309,14.5837866 8.0456009,14.5730054 8.13368841,14.5603804 L9.01761257,15.4350994 C9.15442415,15.5703807 9.3722799,15.5664745 9.50439592,15.4263807 C9.63642047,15.2862556 9.63260913,15.0627555 9.49588903,14.9274742 L8.95833874,14.3955053 C10.0882615,14.1051614 11.103265,13.57063 11.9230978,12.8537547 C13.193735,11.7440668 14.0005483,10.18166 14.0000003,8.44878436 C14.0005483,6.71568997 13.193735,5.1535019 11.9230978,4.04384524 Z M3.02214312,12.4434733 L2.67296411,12.1379732 C1.57615418,11.1762229 0.918592661,9.87634739 0.918043829,8.44875311 C0.918592661,7.02075259 1.57615418,5.72131461 2.67308607,4.7590955 C2.81069041,4.63850171 3.04391345,4.45290789 3.32046371,4.23815781 C3.57249949,4.04243899 3.86283153,3.82009516 4.16002397,3.59134507 C4.14904733,3.60422008 4.13660714,3.61865758 4.12584394,3.63131384 C3.93948504,3.85043892 3.78172638,4.03972024 3.67144167,4.18556404 C2.83807102,5.29043945 2.333908,6.79428375 2.33335917,8.44878436 C2.333908,10.1028787 2.83807102,11.6071605 3.67144167,12.7117859 C3.73477077,12.7955985 3.80367965,12.8725672 3.87078959,12.9515985 C3.43184609,12.7232859 3.02912548,12.4499421 2.67308607,12.1380045 L3.02214312,12.4434733 Z M5.48249525,13.4127862 C5.01174999,13.1490986 4.58097798,12.7634422 4.21591334,12.2799108 C3.48483885,11.3131292 3.02125889,9.95534742 3.02183767,8.44875311 C3.02125889,6.94194006 3.48483885,5.58440831 4.21591334,4.6173767 C4.30781218,4.49537666 4.46179,4.31003284 4.64467297,4.09528276 C4.91954625,3.77209514 5.26177338,3.37953249 5.58271805,2.99846985 C5.78734085,2.75543851 5.9794015,2.52068843 6.14569755,2.3054696 C6.0734042,2.53837593 5.99239052,2.78990728 5.9121696,3.03590737 C5.74788594,3.54009505 5.58811489,4.01925148 5.50673533,4.30178283 C5.19667583,5.38318948 5.01144509,6.83950252 5.01089626,8.44875311 C5.01144509,10.0578162 5.19667583,11.5141292 5.50673533,12.5955359 C5.6184531,12.9828173 5.74587355,13.3200049 5.89277754,13.6062238 C5.75313033,13.5513175 5.61607482,13.4874737 5.48249525,13.4127862 Z M7.83262366,12.3961608 C7.69142143,12.8904735 7.52201533,13.2805049 7.35757922,13.520755 C7.30763552,13.5947238 7.25888096,13.65213 7.21393773,13.6971613 C7.14277254,13.6992238 7.0717293,13.701755 6.99989331,13.701755 C6.9278134,13.701755 6.85646526,13.6992238 6.78493418,13.6971613 C6.70404247,13.6154113 6.60958241,13.4872237 6.51847632,13.3130987 C6.39431837,13.0787861 6.27351438,12.7668485 6.16716297,12.3961296 C5.88198385,11.4061292 5.69876549,10.0003474 5.69931295,8.44872186 C5.698735,6.89690879 5.88198385,5.49134577 6.16716297,4.50112666 C6.23976122,4.24800156 6.40056895,3.76400139 6.56506605,3.2593762 C6.73014247,2.75265726 6.89954856,2.22365707 6.99772848,1.84650068 C6.99852124,1.84375068 6.99916154,1.84100068 6.99986282,1.83821943 C7.00065558,1.84100068 7.00129588,1.84375068 7.00208864,1.84671943 C7.1001466,2.22365707 7.26958318,2.75265726 7.43453764,3.25934495 C7.5991567,3.76400139 7.75996442,4.24800156 7.83256268,4.50109541 C8.1177418,5.49134577 8.30096016,6.89687754 8.30041285,8.44869061 C8.30102114,10.0003787 8.11777229,11.4061605 7.83262366,12.3961608 Z M8.51729137,13.4127862 C8.38392524,13.4874425 8.24711366,13.5510675 8.10783234,13.6057238 C8.25394357,13.3199737 8.38179089,12.9823485 8.49308179,12.5955046 C8.80314129,11.514098 8.98837203,10.057785 8.98892086,8.44872186 C8.98837203,6.83947127 8.80314129,5.38315823 8.49308179,4.30175158 C8.41173272,4.01922023 8.25193118,3.5400638 8.08764752,3.03587612 C8.00764004,2.79056353 7.92696176,2.53996969 7.85479037,2.3075321 C8.10792381,2.63506347 8.42706952,3.01246986 8.74182458,3.38043874 C8.95867413,3.63356384 9.1718953,3.87981393 9.35511366,4.09528276 C9.53799662,4.31003284 9.69197445,4.49540791 9.78396476,4.6173767 C10.5149478,5.58440831 10.9785277,6.94194006 10.977949,8.44875311 C10.9785277,9.95537867 10.5149478,11.3131292 9.78396476,12.2799108 C9.41880864,12.7634422 8.98803664,13.1490986 8.51729137,13.4127862 Z M11.327036,12.1379732 C10.9709356,12.4499108 10.5680625,12.7234734 10.1290275,12.9518173 C10.1962594,12.8725672 10.2650768,12.7955985 10.3284974,12.7117859 C11.1617461,11.6071605 11.6659091,10.1028475 11.666458,8.44878436 C11.6659091,6.79428375 11.1617461,5.29043945 10.3284974,4.18556404 C10.2181212,4.03972024 10.0603321,3.85043892 9.87397318,3.63131384 C9.8605268,3.61568883 9.8455254,3.59800132 9.83183509,3.58215757 C9.97974527,3.69653261 10.1266797,3.81003265 10.2678515,3.91890769 C10.7216744,4.26875157 11.1257671,4.58272044 11.326914,4.75912675 C12.4238764,5.72134586 13.0814379,7.02075259 13.0819867,8.44878436 C13.0814684,9.87634739 12.4238764,11.1762229 11.327036,12.1379732 Z" id="Shape"></path>
            </g>
        </g>
    </g>
</svg>