<?xml version="1.0" encoding="UTF-8"?>
<svg width="104px" height="24px" viewBox="0 0 104 24" version="1.1" xmlns="http://www.w3.org/2000/svg" xmlns:xlink="http://www.w3.org/1999/xlink">
    <title>logo.svg</title>
    <g id="Page-1" stroke="none" stroke-width="1" fill="none" fill-rule="evenodd">
        <g id="logo.svg" transform="translate(0, 0.06)" fill-rule="nonzero">
            <g id="SimpleeFood" transform="translate(16.1927, 0)" fill="#67AAE0">
                <path d="M7.48,0 C4.796,0 2.838,1.826 2.838,4.29 C2.838,8.338 7.238,8.822 7.238,12.364 C7.238,13.992 6.38,15.422 4.576,15.422 C3.058,15.422 2.266,14.256 2.266,13.09 C2.266,11.836 3.344,10.868 4.796,11.352 C4.906,11.088 4.95,10.868 4.95,10.648 C4.95,9.812 4.224,9.284 3.498,9.284 C1.21,9.284 0,11.066 0,12.936 C0,14.982 1.43,17.116 4.488,17.116 C7.788,17.116 10.296,15.114 10.296,11.704 C10.296,7.92 5.698,7.04 5.698,3.894 C5.698,2.486 6.402,1.232 7.766,1.232 C8.69,1.232 9.108,1.914 9.108,2.64 C9.108,3.366 8.69,4.158 7.986,4.378 C8.228,4.994 8.91,5.258 9.262,5.258 C10.384,5.258 11.044,4.246 11.044,3.102 C11.044,1.65 9.988,0 7.48,0 Z" id="Path"></path>
                <path d="M13.2055,6.796 C13.1095,7.42 13.5735,7.916 14.1975,7.916 C14.8215,7.916 15.3495,7.42 15.4455,6.796 C15.5095,6.172 15.0455,5.676 14.4215,5.676 C13.7975,5.676 13.2695,6.172 13.2055,6.796 Z M11.7495,15.164 C11.4455,16.62 12.3735,17.068 13.1735,17.068 C14.2455,17.068 15.3175,16.332 16.0695,15.484 C16.1655,15.372 16.2135,15.244 16.2135,15.132 C16.2135,14.972 16.1175,14.828 15.9415,14.748 C15.5415,15.148 14.8535,15.548 14.2615,15.548 C13.8455,15.548 13.5895,15.26 13.7815,14.364 L14.7575,9.74 C14.8855,9.132 14.5655,8.86 13.9895,8.86 C13.3175,8.86 12.7415,9.196 12.1975,9.628 C11.8775,9.884 11.9895,10.38 12.1975,10.508 C12.3415,10.38 12.4375,10.316 12.5175,10.316 C12.6615,10.316 12.7255,10.46 12.6775,10.716 L11.7495,15.164 Z" id="Shape"></path>
                <path d="M18.8255,9.74 C18.9695,9.132 18.6335,8.86 18.0575,8.86 C17.3855,8.86 16.8095,9.196 16.2655,9.628 C15.9455,9.884 16.0575,10.38 16.2655,10.508 C16.4095,10.38 16.5055,10.316 16.5855,10.316 C16.7295,10.316 16.8095,10.46 16.7455,10.716 L15.4335,16.86 C15.6255,16.988 15.8975,17.068 16.1855,17.068 C16.7615,17.068 17.3695,16.796 17.5295,16.06 L18.5055,11.5 C18.9375,10.988 19.4015,10.668 19.9775,10.668 C20.5055,10.668 20.4735,11.1 20.3615,11.612 L19.2415,16.86 C19.4335,16.988 19.7055,17.068 19.9935,17.068 C20.5695,17.068 21.1775,16.796 21.3375,16.06 L22.3295,11.404 C22.7455,10.956 23.1775,10.668 23.7215,10.668 C24.2495,10.668 24.2335,11.1 24.1055,11.612 L23.4335,14.796 C23.0335,16.668 23.8815,17.068 24.6815,17.068 C25.7535,17.068 26.8255,16.332 27.5775,15.484 C27.6735,15.372 27.7215,15.244 27.7215,15.132 C27.7215,14.972 27.6255,14.828 27.4495,14.748 C27.0495,15.148 26.3615,15.548 25.7695,15.548 C25.4495,15.548 25.2415,15.356 25.3375,14.892 L26.1215,11.212 C26.5375,9.34 25.4975,8.86 24.7775,8.86 C23.8495,8.86 23.0495,9.548 22.3775,10.508 C22.4255,9.372 21.6895,8.86 21.0335,8.86 C20.1215,8.86 19.3215,9.516 18.6655,10.46 L18.8255,9.74 Z" id="Path"></path>
                <path d="M25.7255,22.764 C25.9175,22.892 26.1895,22.972 26.4775,22.972 C27.0535,22.972 27.6135,22.7 27.7735,21.964 L28.8775,16.652 C29.1975,16.924 29.5975,17.068 29.9815,17.068 C32.7175,17.068 34.4615,13.9 34.4615,11.5 C34.4615,10.044 33.8375,8.86 32.4295,8.86 C31.6295,8.86 30.8775,9.356 30.2535,10.124 L30.3335,9.74 C30.4775,9.132 30.1415,8.86 29.5655,8.86 C28.8935,8.86 28.3175,9.196 27.7735,9.628 C27.4535,9.884 27.5655,10.38 27.7735,10.508 C27.9175,10.38 28.0135,10.316 28.0935,10.316 C28.2375,10.316 28.3175,10.46 28.2535,10.716 L25.7255,22.764 Z M31.5495,10.46 C32.0935,10.46 32.4935,10.956 32.4935,12.076 C32.4935,13.66 31.5175,15.836 29.8855,15.836 C29.6295,15.836 29.3735,15.82 29.0855,15.66 L29.9655,11.484 C30.4935,10.828 31.0695,10.46 31.5495,10.46 Z" id="Shape"></path>
                <path d="M40.8655,14.46 C40.9775,14.156 40.7855,13.804 40.4815,13.852 C40.1775,14.732 38.8975,15.516 38.0175,15.516 C37.4575,15.516 37.0415,15.196 37.1535,14.364 C37.1695,14.172 37.2015,13.964 37.2335,13.772 C39.2975,10.62 40.3375,8.06 40.3375,6.812 C40.3375,5.98 39.8095,5.516 39.0575,5.516 C36.9775,5.516 35.9055,8.828 35.1855,14.508 C34.8175,14.876 34.4975,15.132 34.0335,15.228 C34.1295,15.788 34.6895,16.06 35.2015,15.852 C35.4095,16.7 36.0975,17.068 36.9135,17.068 C38.3855,17.068 40.3055,15.916 40.8655,14.46 Z M39.1695,6.572 C39.3455,6.572 39.4415,6.652 39.4415,6.924 C39.4415,7.468 38.8495,9.74 37.4415,12.348 C37.9855,8.972 38.6415,6.572 39.1695,6.572 Z" id="Shape"></path>
                <path d="M46.1975,10.332 C46.1975,9.612 45.8295,8.796 44.3735,8.796 C41.7335,8.796 40.3575,12.124 40.3575,14.204 C40.3575,16.172 41.5735,17.068 43.0775,17.068 C44.6295,17.068 46.4855,16.108 47.5895,14.492 C47.7655,14.204 47.6055,13.868 47.1895,13.948 C46.5015,14.86 45.0295,15.676 43.8775,15.676 C43.1415,15.676 42.5495,15.356 42.3895,14.492 C45.4775,12.78 46.1975,11.692 46.1975,10.332 Z M44.4855,10.044 C44.7575,10.044 44.9495,10.3 44.9495,10.668 C44.9495,11.708 43.8935,12.828 42.3415,13.804 C42.3895,12.684 42.9015,10.044 44.4855,10.044 Z" id="Shape"></path>
                <path d="M52.9375,10.332 C52.9375,9.612 52.5695,8.796 51.1135,8.796 C48.4735,8.796 47.0975,12.124 47.0975,14.204 C47.0975,16.172 48.3135,17.068 49.8175,17.068 C51.3695,17.068 53.2255,16.108 54.3295,14.492 C54.5055,14.204 54.3455,13.868 53.9295,13.948 C53.2415,14.86 51.7695,15.676 50.6175,15.676 C49.8815,15.676 49.2895,15.356 49.1295,14.492 C52.2175,12.78 52.9375,11.692 52.9375,10.332 Z M51.2255,10.044 C51.4975,10.044 51.6895,10.3 51.6895,10.668 C51.6895,11.708 50.6335,12.828 49.0815,13.804 C49.1295,12.684 49.6415,10.044 51.2255,10.044 Z" id="Shape"></path>
                <path d="M56.7335,6.02 C56.7335,3.92 58.1735,2.9 59.5135,2.76 L56.3335,16.84 C56.5535,17 56.9335,17.1 57.3935,17.1 C58.1335,17.1 58.9135,16.76 59.1135,15.82 L60.3735,9.9 C60.9535,10.02 61.5135,10.24 62.1135,10.24 C63.1535,10.24 63.6935,9.22 63.2135,8.6 C62.3935,9 61.5935,8.74 60.6335,8.64 L61.7535,3.4 C62.7735,3.86 63.8735,4.4 64.6735,4.4 C66.1135,4.4 67.0735,3.18 66.6335,1.38 C64.3335,2.4 62.4135,1.54 60.1935,1.54 C58.2935,1.54 54.6535,2.24 54.6535,5.52 C54.6535,6.48 55.2535,7.38 56.2935,7.38 C56.5535,7.38 56.8335,7.32 57.1335,7.18 C56.8535,6.86 56.7335,6.36 56.7335,6.02 Z" id="Path"></path>
                <path d="M63.6265,14.236 C63.6265,15.74 64.3305,17.068 65.9785,17.068 C67.8825,17.068 70.0585,14.652 70.1545,12.236 C71.1945,12.028 72.2825,11.26 72.6825,10.956 C72.9545,10.748 72.9545,10.284 72.7625,10.156 C72.0265,10.652 71.0985,11.228 70.0265,11.468 C69.8025,10.876 69.2905,10.524 68.6665,10.524 C67.7545,10.524 67.4025,11.324 67.7385,12.204 C67.9145,12.316 68.1865,12.38 68.4745,12.396 C68.8585,14.124 67.6585,15.676 66.7145,15.676 C66.1545,15.676 65.6745,15.132 65.6745,13.724 C65.6745,12.156 66.6185,10.012 68.0745,10.012 C68.4585,10.012 68.7945,10.076 69.0985,10.188 C69.3385,10.284 69.6105,10.108 69.6425,9.74 C69.1625,9.02 68.5225,8.796 67.7225,8.796 C65.3065,8.796 63.6265,11.82 63.6265,14.236 Z" id="Path"></path>
                <path d="M71.1505,14.236 C71.1505,15.74 71.8545,17.068 73.5025,17.068 C75.4065,17.068 77.5825,14.652 77.6785,12.236 C78.7185,12.028 79.8065,11.26 80.2065,10.956 C80.4785,10.748 80.4785,10.284 80.2865,10.156 C79.5505,10.652 78.6225,11.228 77.5505,11.468 C77.3265,10.876 76.8145,10.524 76.1905,10.524 C75.2785,10.524 74.9265,11.324 75.2625,12.204 C75.4385,12.316 75.7105,12.38 75.9985,12.396 C76.3825,14.124 75.1825,15.676 74.2385,15.676 C73.6785,15.676 73.1985,15.132 73.1985,13.724 C73.1985,12.156 74.1425,10.012 75.5985,10.012 C75.9825,10.012 76.3185,10.076 76.6225,10.188 C76.8625,10.284 77.1345,10.108 77.1665,9.74 C76.6865,9.02 76.0465,8.796 75.2465,8.796 C72.8305,8.796 71.1505,11.82 71.1505,14.236 Z" id="Path"></path>
                <path d="M84.5785,17.068 C85.4425,17.068 86.5945,16.332 87.3465,15.484 C87.4425,15.372 87.4905,15.244 87.4905,15.132 C87.4905,14.972 87.3945,14.828 87.2185,14.748 C86.8185,15.148 86.1305,15.548 85.5385,15.548 C85.1225,15.548 84.8665,15.26 85.0585,14.364 L86.7385,6.396 C86.8665,5.788 86.5465,5.516 85.9705,5.516 C85.1065,5.516 83.9545,6.284 83.9545,6.652 C83.9545,6.78 83.9705,6.94 84.1945,7.148 C84.4505,6.844 84.7545,6.94 84.6585,7.372 L84.2585,9.244 C83.8745,8.94 83.3785,8.796 82.7225,8.796 C80.4985,8.796 78.6905,11.58 78.6905,14.38 C78.6905,15.404 79.0265,17.068 80.6905,17.068 C81.6025,17.068 82.4505,16.396 83.1225,15.452 C83.1065,16.716 83.8265,17.068 84.5785,17.068 Z M83.1545,14.412 C82.7225,15.004 82.0505,15.42 81.5385,15.42 C81.0425,15.42 80.6745,15.068 80.6745,14.268 C80.6745,12.524 81.3625,9.996 83.2985,9.996 C83.5385,9.996 83.7945,10.044 84.0665,10.14 L83.1545,14.428 L83.1545,14.412 Z" id="Shape"></path>
            </g>
            <g id="onion" transform="translate(-0, 0.94)" fill="#EA9999">
                <path d="M11.809543,4.04384524 C11.6478508,3.90097019 11.4188724,3.71722012 11.147825,3.50406379 C10.7422656,3.18500117 10.2465584,2.80393853 9.78684996,2.4382509 C9.32822872,2.07396951 8.90213316,1.72068813 8.6573902,1.48087555 C8.30277867,1.13425042 7.97157235,0.797969044 7.71462848,0.5436877 C7.58576394,0.416437653 7.47631818,0.310343864 7.38520398,0.228093834 C7.33893717,0.186781319 7.29852921,0.151843806 7.252353,0.117375043 C7.22849479,0.0999062868 7.20406278,0.0824687804 7.16601044,0.0615625227 C7.14656147,0.0510000188 7.12360927,0.0395312646 7.08963397,0.0273437601 C7.05514526,0.0158437558 7.00996566,0.000906250334 6.93325699,0 C6.85833013,0.000687500253 6.81227472,0.0153750057 6.77751421,0.02712501 C6.71179843,0.0512187689 6.68208137,0.0721250266 6.65387432,0.0900312832 C6.60428549,0.123562545 6.57097459,0.152281306 6.53289206,0.185593818 C6.46820308,0.243031339 6.39717206,0.312156365 6.31333612,0.395531396 C6.06406312,0.644281487 5.70609936,1.01984413 5.3028654,1.41378177 L5.3028654,1.41353177 C5.13649214,1.57615683 4.88498432,1.79321941 4.59729658,2.02843825 C4.16497976,2.38240713 3.64921961,2.78137602 3.18392411,3.14225116 C2.95117065,3.32300122 2.73098051,3.49415754 2.53860481,3.64690759 C2.34604792,3.79990765 2.18254367,3.93287645 2.05712197,4.04384524 C0.798586263,5.15353315 -0.000542987543,6.71572122 3.08460502e-07,8.44878436 C-0.000573187809,10.18166 0.798586263,11.7440668 2.05724277,12.8537547 L2.05712197,12.8535047 C2.86890513,13.5704112 3.8743928,14.1049114 4.99343347,14.3955053 L4.46100278,14.9274742 C4.32558478,15.0627555 4.32180975,15.2862556 4.4525467,15.4263807 C4.58340446,15.5665057 4.79918536,15.5703807 4.93469396,15.4350994 L5.81019968,14.5603804 C5.89744825,14.5730054 5.98533102,14.5838179 6.073697,14.5934741 L5.8348431,15.5595995 C5.78815349,15.748412 5.89823346,15.9406621 6.08070347,15.9889121 C6.26305267,16.0371622 6.44884471,15.9234746 6.49547393,15.7346308 L6.76640052,14.6389741 C6.82199921,14.6401304 6.87729589,14.6426616 6.93322679,14.6426616 C6.98915768,14.6426616 7.04442417,14.6401304 7.10002286,14.6389741 L7.37094945,15.7346308 C7.41757866,15.9234746 7.6033707,16.0371622 7.78571991,15.9889121 C7.96818992,15.9406621 8.07830009,15.748412 8.03158028,15.5595995 L7.79272637,14.5934741 C7.88109235,14.5837866 7.96897513,14.5730054 8.0562237,14.5603804 L8.93172942,15.4350994 C9.06723802,15.5703807 9.28301892,15.5664745 9.41387667,15.4263807 C9.54464383,15.2862556 9.54086879,15.0627555 9.4054508,14.9274742 L8.8730201,14.3955053 C9.99218158,14.1051614 10.9975182,13.57063 11.809543,12.8537547 C13.0680787,11.7440668 13.867208,10.18166 13.8666646,8.44878436 C13.867208,6.71568997 13.0680787,5.1535019 11.809543,4.04384524 Z M2.99336043,12.4434733 L2.64750698,12.1379732 C1.56114299,11.1762229 0.909844045,9.87634739 0.90930044,8.44875311 C0.909844045,7.02075259 1.56114299,5.72131461 2.64762778,4.7590955 C2.78392158,4.63850171 3.01492342,4.45290789 3.28883983,4.23815781 C3.53847524,4.04243899 3.82604217,3.82009516 4.12040417,3.59134507 C4.10953207,3.60422008 4.09721037,3.61865758 4.08654967,3.63131384 C3.90196564,3.85043892 3.74570946,4.03972024 3.6364751,4.18556404 C2.81104142,5.29043945 2.31168001,6.79428375 2.31113641,8.44878436 C2.31168001,10.1028787 2.81104142,11.6071605 3.6364751,12.7117859 C3.69920105,12.7955985 3.76745366,12.8725672 3.83392444,12.9515985 C3.39916141,12.7232859 3.00027629,12.4499421 2.64762778,12.1380045 L2.99336043,12.4434733 Z M5.43028033,13.4127862 C4.96401841,13.1490986 4.53734905,12.7634422 4.17576126,12.2799108 C3.45164947,11.3131292 2.99248462,9.95534742 2.99305789,8.44875311 C2.99248462,6.94194006 3.45164947,5.58440831 4.17576126,4.6173767 C4.26678486,4.49537666 4.41929621,4.31003284 4.60043741,4.09528276 C4.87269281,3.77209514 5.2116606,3.37953249 5.5295486,2.99846985 C5.73222259,2.75543851 5.92245407,2.52068843 6.08716632,2.3054696 C6.01556149,2.53837593 5.93531938,2.78990728 5.85586248,3.03590737 C5.69314345,3.54009505 5.53489405,4.01925148 5.45428954,4.30178283 C5.14718303,5.38318948 4.96371641,6.83950252 4.96317281,8.44875311 C4.96371641,10.0578162 5.14718303,11.5141292 5.45428954,12.5955359 C5.56494332,12.9828173 5.69115023,13.3200049 5.83665511,13.6062238 C5.69833789,13.5513175 5.56258769,13.4874737 5.43028033,13.4127862 Z M7.75802626,12.3961608 C7.61816883,12.8904735 7.45037615,13.2805049 7.28750611,13.520755 C7.23803808,13.5947238 7.18974785,13.65213 7.14523266,13.6971613 C7.07474524,13.6992238 7.00437862,13.701755 6.93322679,13.701755 C6.86183336,13.701755 6.79116473,13.6992238 6.72031491,13.6971613 C6.6401936,13.6154113 6.54663318,13.4872237 6.45639478,13.3130987 C6.3334193,13.0787861 6.21376584,12.7668485 6.10842731,12.3961296 C5.82596422,11.4061292 5.64449082,10.0003474 5.64503307,8.44872186 C5.64446062,6.89690879 5.82596422,5.49134577 6.10842731,4.50112666 C6.18033415,4.24800156 6.33961035,3.76400139 6.50254079,3.2593762 C6.66604503,2.75265726 6.83383771,2.22365707 6.93108257,1.84650068 C6.93186778,1.84375068 6.93250198,1.84100068 6.93319659,1.83821943 C6.93398179,1.84100068 6.934616,1.84375068 6.93540121,1.84671943 C7.03252526,2.22365707 7.20034814,2.75265726 7.36373159,3.25934495 C7.52678282,3.76400139 7.68605903,4.24800156 7.75796586,4.50109541 C8.04042896,5.49134577 8.22190236,6.89687754 8.22136026,8.44869061 C8.22196276,10.0003787 8.04045916,11.4061605 7.75802626,12.3961608 Z M8.43617325,13.4127862 C8.30407728,13.4874425 8.16856869,13.5510675 8.03061387,13.6057238 C8.17533355,13.3199737 8.30196326,12.9823485 8.41219424,12.5955046 C8.71930075,11.514098 8.90276736,10.057785 8.90331097,8.44872186 C8.90276736,6.83947127 8.71930075,5.38315823 8.41219424,4.30175158 C8.33161993,4.01922023 8.17334033,3.5400638 8.01062129,3.03587612 C7.93137579,2.79056353 7.85146589,2.53996969 7.77998186,2.3075321 C8.03070447,2.63506347 8.34681066,3.01246986 8.65856801,3.38043874 C8.87335231,3.63356384 9.08454277,3.87981393 9.26601617,4.09528276 C9.44715737,4.31003284 9.59966871,4.49540791 9.69078292,4.6173767 C10.4148041,5.58440831 10.873969,6.94194006 10.8733957,8.44875311 C10.873969,9.95537867 10.4148041,11.3131292 9.69078292,12.2799108 C9.32910453,12.7634422 8.90243516,13.1490986 8.43617325,13.4127862 Z M11.219158,12.1379732 C10.8664491,12.4499108 10.467413,12.7234734 10.0325593,12.9518173 C10.0991509,12.8725672 10.1673129,12.7955985 10.2301295,12.7117859 C11.0554424,11.6071605 11.5548038,10.1028475 11.5553474,8.44878436 C11.5548038,6.79428375 11.0554424,5.29043945 10.2301295,4.18556404 C10.1208045,4.03972024 9.96451813,3.85043892 9.7799341,3.63131384 C9.76661579,3.61568883 9.75175726,3.59800132 9.73819734,3.58215757 C9.88469883,3.69653261 10.0302339,3.81003265 10.1700611,3.91890769 C10.6195619,4.26875157 11.019806,4.58272044 11.2190372,4.75912675 C12.3055522,5.72134586 12.9568511,7.02075259 12.9573947,8.44878436 C12.9568813,9.87634739 12.3055522,11.1762229 11.219158,12.1379732 Z" id="Shape"></path>
            </g>
        </g>
    </g>
</svg>